<svg width="24" height="24" viewBox="0 0 24 24" fill="none" xmlns="http://www.w3.org/2000/svg">
<path d="M2.5 4C2.5 3.44771 2.94771 3 3.5 3H20.5C21.0523 3 21.5 3.44771 21.5 4V16C21.5 16.5523 21.0523 17 20.5 17H3.5C2.94771 17 2.5 16.5523 2.5 16V4Z" stroke="#222222" stroke-width="1.5" stroke-linecap="round" stroke-linejoin="round"/>
<path d="M2.5 13C2.5 12.4477 2.94771 12 3.5 12H20.5C21.0523 12 21.5 12.4477 21.5 13V16C21.5 16.5523 21.0523 17 20.5 17H3.5C2.94771 17 2.5 16.5523 2.5 16V13Z" stroke="#222222" stroke-width="1.5" stroke-linecap="round" stroke-linejoin="round"/>
<path d="M12 14.25C12.1381 14.25 12.25 14.3619 12.25 14.5C12.25 14.6381 12.1381 14.75 12 14.75C11.8619 14.75 11.75 14.6381 11.75 14.5C11.75 14.3619 11.8619 14.25 12 14.25Z" fill="#222222" stroke="#222222" stroke-width="1.5"/>
<path d="M8.5 17L7 21H17L15.5 17" stroke="#222222" stroke-width="1.5" stroke-linecap="round" stroke-linejoin="round"/>
</svg>
