<svg version="1.1" xmlns="http://www.w3.org/2000/svg" xmlns:xlink="http://www.w3.org/1999/xlink" width="20" height="20" viewBox="0,0,256,256"><g fill="none" fill-rule="nonzero" stroke="#ffffff" stroke-width="1" stroke-linecap="round" stroke-linejoin="round" stroke-miterlimit="10" stroke-dasharray="" stroke-dashoffset="0" font-family="none" font-weight="none" font-size="none" text-anchor="none" style="mix-blend-mode: normal"><g transform="scale(12.8,12.8)"><path d="M12.9167,10h-2.9167v-4.16667M2.5,10c0,0.9849 0.19399,1.9602 0.5709,2.8701c0.37691,0.91 0.92936,1.7368 1.6258,2.4332c0.69644,0.6964 1.52323,1.2489 2.43317,1.6258c0.90995,0.3769 1.88522,0.5709 2.87013,0.5709c0.9849,0 1.9602,-0.194 2.8701,-0.5709c0.91,-0.3769 1.7368,-0.9294 2.4332,-1.6258c0.6964,-0.6964 1.2489,-1.5232 1.6258,-2.4332c0.3769,-0.9099 0.5709,-1.8852 0.5709,-2.8701c0,-0.98491 -0.194,-1.96018 -0.5709,-2.87013c-0.3769,-0.90994 -0.9294,-1.73673 -1.6258,-2.43317c-0.6964,-0.69644 -1.5232,-1.24889 -2.4332,-1.6258c-0.9099,-0.37691 -1.8852,-0.5709 -2.8701,-0.5709c-0.98491,0 -1.96018,0.19399 -2.87013,0.5709c-0.90994,0.37691 -1.73673,0.92936 -2.43317,1.6258c-0.69644,0.69644 -1.24889,1.52323 -1.6258,2.43317c-0.37691,0.90995 -0.5709,1.88522 -0.5709,2.87013z"></path></g></g></svg>